<?xml version="1.0" encoding="utf-8"?>
<!-- Generator: Adobe Illustrator 19.0.0, SVG Export Plug-In . SVG Version: 6.00 Build 0)  -->
<svg version="1.1" id="Layer_1" xmlns="http://www.w3.org/2000/svg" xmlns:xlink="http://www.w3.org/1999/xlink" x="0px" y="0px"
	 viewBox="0 0 35 35" style="enable-background:new 0 0 35 35;" xml:space="preserve">
<style type="text/css">
	.st0{fill:#444444;}
	.st1{fill:url(#SVGID_1_);}
	.st2{fill:#EEEEEE;}
	.st3{fill:#44CAC8;}
	.st4{fill:#44A8A9;}
</style>
<g>
	<circle id="XMLID_95_" class="st0" cx="17.4" cy="17.5" r="15.9"/>
	<linearGradient id="SVGID_1_" gradientUnits="userSpaceOnUse" x1="5.3409" y1="29.6784" x2="29.6782" y2="5.3411">
		<stop  offset="0" style="stop-color:#44CAC8"/>
		<stop  offset="1" style="stop-color:#009999"/>
	</linearGradient>
	<path class="st1" d="M17.5,35C8.4,35,0,26.6,0,17.5S8.4,0,17.5,0S35,8.4,35,17.5S26.6,35,17.5,35z M17.5,2.5c-8.3,0-15,6.7-15,15
		s6.7,15,15,15s15-6.7,15-15S25.8,2.5,17.5,2.5z"/>
	<rect id="XMLID_92_" x="11.6" y="12.5" class="st2" width="3.3" height="1.4"/>
	<rect id="XMLID_91_" x="16.3" y="12.5" class="st2" width="7.1" height="1.4"/>
	<rect id="XMLID_90_" x="8.8" y="9.7" class="st3" width="1.4" height="15.7"/>
	<rect id="XMLID_89_" x="24.8" y="9.7" class="st3" width="1.4" height="15.7"/>
	<rect id="XMLID_88_" x="8.8" y="11.1" class="st4" width="1.4" height="1.4"/>
	<rect id="XMLID_87_" x="24.8" y="11.1" class="st4" width="1.4" height="1.4"/>
	<rect id="XMLID_86_" x="11.6" y="15.3" class="st2" width="3.3" height="1.4"/>
	<rect id="XMLID_85_" x="16.3" y="15.3" class="st2" width="7.1" height="1.4"/>
	<rect id="XMLID_84_" x="11.6" y="18.1" class="st2" width="3.3" height="1.4"/>
	<rect id="XMLID_83_" x="16.3" y="18.1" class="st2" width="7.1" height="1.4"/>
	<rect id="XMLID_82_" x="11.6" y="20.9" class="st2" width="3.3" height="1.4"/>
	<rect id="XMLID_81_" x="16.3" y="20.9" class="st2" width="7.1" height="1.4"/>
	<rect id="XMLID_80_" x="8.8" y="9.7" class="st2" width="17.4" height="1.4"/>
	<rect id="XMLID_79_" x="8.8" y="23.9" class="st3" width="17.4" height="1.4"/>
</g>
</svg>
