<?xml version="1.0" encoding="utf-8"?>
<!-- Generator: Adobe Illustrator 19.0.0, SVG Export Plug-In . SVG Version: 6.00 Build 0)  -->
<svg version="1.1" id="Layer_1" xmlns="http://www.w3.org/2000/svg" xmlns:xlink="http://www.w3.org/1999/xlink" x="0px" y="0px"
	 viewBox="0 0 35 35" style="enable-background:new 0 0 35 35;" xml:space="preserve">
<style type="text/css">
	.st0{fill:#444444;}
	.st1{fill:url(#SVGID_1_);}
	.st2{fill:#EEEEEE;}
	.st3{fill:#93C971;}
	.st4{fill:#2B8B46;}
</style>
<g>
	<circle id="XMLID_86_" class="st0" cx="17.1" cy="17.5" r="15.9"/>
	<linearGradient id="SVGID_1_" gradientUnits="userSpaceOnUse" x1="5.3409" y1="29.6783" x2="29.6782" y2="5.341">
		<stop  offset="0" style="stop-color:#93C971"/>
		<stop  offset="1" style="stop-color:#009966"/>
	</linearGradient>
	<path class="st1" d="M17.5,35C8.4,35,0,26.6,0,17.5S8.4,0,17.5,0S35,8.4,35,17.5S26.6,35,17.5,35z M17.5,2.5c-8.3,0-15,6.7-15,15
		s6.7,15,15,15s15-6.7,15-15S25.8,2.5,17.5,2.5z"/>
	<polygon id="XMLID_83_" class="st2" points="10.5,25.4 13.8,9.6 15.2,9.6 11.9,25.4 	"/>
	<polygon id="XMLID_82_" class="st2" points="19.8,25.4 23.2,9.6 24.6,9.6 21.3,25.4 	"/>
	<polygon id="XMLID_81_" class="st3" points="16.1,12 15.6,14.3 18.9,23.1 19.4,20.7 	"/>
	<polygon id="XMLID_80_" class="st4" points="15.2,9.6 15.2,9.6 14.7,12 15.6,14.3 16.1,12 	"/>
	<polygon id="XMLID_79_" class="st3" points="19.4,20.7 18.9,23.1 19.8,25.4 19.9,25.4 20.4,23.1 	"/>
</g>
</svg>
