<?xml version="1.0" encoding="utf-8"?>
<!-- Generator: Adobe Illustrator 19.0.0, SVG Export Plug-In . SVG Version: 6.00 Build 0)  -->
<svg version="1.1" id="Layer_1" xmlns="http://www.w3.org/2000/svg" xmlns:xlink="http://www.w3.org/1999/xlink" x="0px" y="0px"
	 viewBox="0 0 35 35" style="enable-background:new 0 0 35 35;" xml:space="preserve">
<style type="text/css">
	.st0{fill:#444444;}
	.st1{fill:url(#SVGID_1_);}
	.st2{fill:#EEEEEE;}
	.st3{fill:#66CCFF;}
</style>
<g>
	<circle class="st0" cx="17.5" cy="17.4" r="15.9"/>
	<linearGradient id="SVGID_1_" gradientUnits="userSpaceOnUse" x1="5.3411" y1="29.6782" x2="29.6783" y2="5.341">
		<stop  offset="0" style="stop-color:#66CCFF"/>
		<stop  offset="1" style="stop-color:#336699"/>
	</linearGradient>
	<path class="st1" d="M17.5,35C8.4,35,0,26.6,0,17.5S8.4,0,17.5,0S35,8.4,35,17.5S26.6,35,17.5,35z M17.5,2.5c-8.3,0-15,6.7-15,15
		s6.7,15,15,15c8.3,0,15-6.7,15-15S25.8,2.5,17.5,2.5z"/>
	<rect x="11.4" y="14.9" class="st2" width="12.3" height="1.3"/>
	<rect x="11.4" y="25.8" class="st2" width="12.3" height="1.3"/>
	<rect x="11.4" y="14.9" class="st2" width="1.3" height="12.3"/>
	<rect x="22.3" y="14.9" class="st2" width="1.3" height="12.3"/>
	<rect x="20.7" y="6.1" class="st2" width="1.3" height="4.8"/>
	
		<rect x="15.2" y="10.3" transform="matrix(0.7071 0.7071 -0.7071 0.7071 13.9919 -11.9198)" class="st3" width="12.3" height="1.3"/>
	
		<rect x="7.5" y="10.3" transform="matrix(-0.7071 0.7071 -0.7071 -0.7071 31.0045 9.0172)" class="st3" width="12.3" height="1.3"/>
</g>
</svg>
