<?xml version="1.0" encoding="utf-8"?>
<!-- Generator: Adobe Illustrator 19.0.0, SVG Export Plug-In . SVG Version: 6.00 Build 0)  -->
<svg version="1.1" id="Layer_1" xmlns="http://www.w3.org/2000/svg" xmlns:xlink="http://www.w3.org/1999/xlink" x="0px" y="0px"
	 viewBox="0 0 35 35" style="enable-background:new 0 0 35 35;" xml:space="preserve">
<style type="text/css">
	.st0{fill:#444444;}
	.st1{fill:url(#SVGID_1_);}
	.st2{fill:#CCCC00;}
	.st3{fill:#EEEEEE;}
	.st4{fill:#ACB937;}
</style>
<g>
	<circle id="XMLID_90_" class="st0" cx="17.7" cy="17.5" r="15.9"/>
	<linearGradient id="SVGID_1_" gradientUnits="userSpaceOnUse" x1="5.3409" y1="29.6784" x2="29.6782" y2="5.3411">
		<stop  offset="0" style="stop-color:#CCCC00"/>
		<stop  offset="0.4746" style="stop-color:#9EB500"/>
		<stop  offset="1" style="stop-color:#669900"/>
	</linearGradient>
	<path class="st1" d="M17.5,35C8.4,35,0,26.6,0,17.5S8.4,0,17.5,0S35,8.4,35,17.5S26.6,35,17.5,35z M17.5,2.5c-8.3,0-15,6.7-15,15
		s6.7,15,15,15s15-6.7,15-15S25.8,2.5,17.5,2.5z"/>
	<rect id="XMLID_87_" x="14.1" y="7" class="st2" width="1.4" height="12.5"/>
	<rect id="XMLID_86_" x="14.1" y="7" class="st2" width="6.9" height="1.4"/>
	<rect id="XMLID_85_" x="19.6" y="18.9" class="st2" width="5.8" height="1.4"/>
	<rect id="XMLID_84_" x="9.6" y="18.9" class="st2" width="5.8" height="1.4"/>
	<rect id="XMLID_83_" x="19.6" y="7" class="st2" width="1.4" height="12.5"/>
	
		<rect id="XMLID_82_" x="7.3" y="23.2" transform="matrix(-0.7071 -0.7071 0.7071 -0.7071 6.2926 50.318)" class="st3" width="12.5" height="1.4"/>
	
		<rect id="XMLID_81_" x="15.2" y="23.2" transform="matrix(0.7071 -0.7071 0.7071 0.7071 -10.5855 22.1558)" class="st3" width="12.5" height="1.4"/>
	<polygon id="XMLID_80_" class="st4" points="25.4,19 23.6,19 22.2,20.3 24,20.3 	"/>
	<polygon id="XMLID_79_" class="st4" points="9.6,19 11.4,19 12.8,20.3 11,20.3 	"/>
</g>
</svg>
