<?xml version="1.0" encoding="utf-8"?>
<!-- Generator: Adobe Illustrator 19.0.0, SVG Export Plug-In . SVG Version: 6.00 Build 0)  -->
<svg version="1.1" id="Layer_1" xmlns="http://www.w3.org/2000/svg" xmlns:xlink="http://www.w3.org/1999/xlink" x="0px" y="0px"
	 viewBox="0 0 35 35" style="enable-background:new 0 0 35 35;" xml:space="preserve">
<style type="text/css">
	.st0{fill:#444444;}
	.st1{fill:url(#SVGID_1_);}
	.st2{fill:#FFCC66;}
	.st3{fill:#EEEEEE;}
	.st4{fill:#FCB64C;}
</style>
<g>
	<circle id="XMLID_90_" class="st0" cx="17.4" cy="17.4" r="15.9"/>
	<linearGradient id="SVGID_1_" gradientUnits="userSpaceOnUse" x1="5.3411" y1="29.6783" x2="29.6783" y2="5.3411">
		<stop  offset="0" style="stop-color:#FFCC66"/>
		<stop  offset="1" style="stop-color:#FF9900"/>
	</linearGradient>
	<path class="st1" d="M17.5,35C8.4,35,0,26.6,0,17.5S8.4,0,17.5,0S35,8.4,35,17.5S26.6,35,17.5,35z M17.5,2.5c-8.3,0-15,6.7-15,15
		s6.7,15,15,15c8.3,0,15-6.7,15-15S25.8,2.5,17.5,2.5z"/>
	<rect id="XMLID_87_" x="6.6" y="19.7" class="st2" width="13" height="1.4"/>
	<rect id="XMLID_86_" x="6.6" y="13.9" class="st2" width="1.4" height="7.2"/>
	<rect id="XMLID_85_" x="19" y="19.7" class="st2" width="1.4" height="6"/>
	<rect id="XMLID_84_" x="6.6" y="13.9" class="st2" width="13" height="1.4"/>
	<rect id="XMLID_83_" x="19" y="9.3" class="st2" width="1.4" height="6.1"/>
	
		<rect id="XMLID_82_" x="17.6" y="20.9" transform="matrix(-0.7071 0.7071 -0.7071 -0.7071 56.4684 19.8635)" class="st3" width="13" height="1.4"/>
	
		<rect id="XMLID_81_" x="17.6" y="12.7" transform="matrix(-0.7071 -0.7071 0.7071 -0.7071 31.706 39.9183)" class="st3" width="13" height="1.4"/>
	<polygon id="XMLID_80_" class="st4" points="19,9.3 20.4,10.7 20.4,12.3 19,11 	"/>
	<polygon id="XMLID_79_" class="st4" points="19,25.7 20.4,24.3 20.4,22.7 19,24 	"/>
</g>
</svg>
